<?xml version="1.0" encoding="utf-8"?>
<svg xmlns="http://www.w3.org/2000/svg" viewBox="0 0 100 100">
  <g stroke="#282828" stroke-width="4" stroke-linecap="round" fill="none">
    <animateTransform attributeName="transform" type="rotate"
                      from="0 50 50" to="360 50 50" dur="20s" repeatCount="indefinite"/>
    <line x1="50" y1="12" x2="50" y2="88"/>
    <line x1="18" y1="31" x2="82" y2="69"/>
    <line x1="82" y1="31" x2="18" y2="69"/>
    <line x1="50" y1="22" x2="44" y2="30"/>
    <line x1="50" y1="22" x2="56" y2="30"/>
    <line x1="50" y1="78" x2="44" y2="70"/>
    <line x1="50" y1="78" x2="56" y2="70"/>
    <line x1="26" y1="35" x2="33" y2="33"/>
    <line x1="26" y1="35" x2="29" y2="42"/>
    <line x1="74" y1="65" x2="67" y2="67"/>
    <line x1="74" y1="65" x2="71" y2="58"/>
    <line x1="74" y1="35" x2="67" y2="33"/>
    <line x1="74" y1="35" x2="71" y2="42"/>
    <line x1="26" y1="65" x2="33" y2="67"/>
    <line x1="26" y1="65" x2="29" y2="58"/>
  </g>
</svg>
